<svg id="f6fd46e7-1c5b-4773-afef-14392cf99ce4" data-name="Layer 1" xmlns="http://www.w3.org/2000/svg" viewBox="0 0 30.37 24.68"><title>Untitled-2</title><path d="M30.37,2.92a12.33,12.33,0,0,1-3.58,1A6.25,6.25,0,0,0,29.53.46a12.65,12.65,0,0,1-4,1.51A6.23,6.23,0,0,0,14.79,6.23,6.07,6.07,0,0,0,15,7.65,17.71,17.71,0,0,1,2.11,1.14,6.25,6.25,0,0,0,4,9.46a6.13,6.13,0,0,1-2.82-.78v.08a6.24,6.24,0,0,0,5,6.11,6.42,6.42,0,0,1-1.64.22A5.69,5.69,0,0,1,3.4,15,6.25,6.25,0,0,0,9.22,19.3,12.5,12.5,0,0,1,1.49,22,12.17,12.17,0,0,1,0,21.88a17.62,17.62,0,0,0,9.55,2.8C21,24.68,27.28,15.19,27.28,7c0-.27,0-.54,0-.8a12.74,12.74,0,0,0,3.11-3.23"/></svg>