<svg id="ba5fbd53-da60-43fb-9a13-00d581b9b8ac" data-name="Layer 1" xmlns="http://www.w3.org/2000/svg" viewBox="0 0 24.68 24.68"><title>Untitled-2</title><path d="M12.34,2.22c3.29,0,3.69,0,5,.08a6.75,6.75,0,0,1,2.29.42A3.91,3.91,0,0,1,21,3.64,3.83,3.83,0,0,1,22,5.06a6.75,6.75,0,0,1,.42,2.29c.06,1.3.08,1.7.08,5s0,3.69-.08,5A6.75,6.75,0,0,1,22,19.62,3.91,3.91,0,0,1,21,21a4,4,0,0,1-1.42.92,6.75,6.75,0,0,1-2.29.42c-1.3.06-1.7.08-5,.08s-3.69,0-5-.08A6.75,6.75,0,0,1,5.06,22,4,4,0,0,1,3.64,21a3.91,3.91,0,0,1-.92-1.42,6.75,6.75,0,0,1-.42-2.29c-.06-1.3-.08-1.7-.08-5s0-3.69.08-5a6.75,6.75,0,0,1,.42-2.29,3.83,3.83,0,0,1,.92-1.42,3.91,3.91,0,0,1,1.42-.92A6.75,6.75,0,0,1,7.35,2.3c1.31-.06,1.7-.08,5-.08m0-2.22C9,0,8.57,0,7.25.07a8.87,8.87,0,0,0-3,.58A6.26,6.26,0,0,0,.65,4.26a8.87,8.87,0,0,0-.58,3C0,8.57,0,9,0,12.34s0,3.77.07,5.09a8.87,8.87,0,0,0,.58,3A6.26,6.26,0,0,0,4.26,24a8.87,8.87,0,0,0,3,.58c1.32.06,1.74.07,5.09.07s3.77,0,5.09-.07a8.87,8.87,0,0,0,3-.58A6.26,6.26,0,0,0,24,20.42a8.87,8.87,0,0,0,.58-3c.06-1.32.07-1.74.07-5.09s0-3.77-.07-5.09a8.87,8.87,0,0,0-.58-3A6.26,6.26,0,0,0,20.42.65a8.87,8.87,0,0,0-3-.58C16.11,0,15.69,0,12.34,0"/><path d="M12.34,6a6.34,6.34,0,1,0,6.34,6.34A6.34,6.34,0,0,0,12.34,6m0,10.45a4.11,4.11,0,1,1,4.11-4.11,4.11,4.11,0,0,1-4.11,4.11"/><path d="M20.41,5.75a1.48,1.48,0,1,1-1.48-1.48,1.48,1.48,0,0,1,1.48,1.48"/></svg>