<svg id="b205bb28-25c8-4733-9faf-f52fd7187f4c" data-name="Layer 1" xmlns="http://www.w3.org/2000/svg" viewBox="0 0 21.25 22.63"><title>Untitled-2</title><path d="M20.39,13.82a3.66,3.66,0,0,0-2.67-1.08c-.89,0-1.67,0-2.4,0A9.47,9.47,0,0,0,17.54,7,7,7,0,0,0,15,1.69l-.06-.05-.25-.2-.32-.23-.24-.15L13.87.93A6.56,6.56,0,0,0,10.64,0,6.79,6.79,0,0,0,6.91,1.24,6.6,6.6,0,0,0,5.49,2.51,6.81,6.81,0,0,0,3.73,7,9.53,9.53,0,0,0,6,12.73c-.94,0-1.87,0-2.79,0A3.25,3.25,0,0,0,0,16.29a36.06,36.06,0,0,0,.42,3.86,2.63,2.63,0,0,0,2.9,2.48H18.07a2.54,2.54,0,0,0,2.71-2.23,34.45,34.45,0,0,0,.46-4A3.49,3.49,0,0,0,20.39,13.82Zm-8.31-.66-.18.09a3.11,3.11,0,0,1-1.26.31,3,3,0,0,1-.42,0,3.67,3.67,0,0,1-1.4-.61C6.65,11.46,5.23,8,5.83,5.68a5,5,0,0,1,1-2,5.91,5.91,0,0,1,1-.86,5,5,0,0,1,2.82-.86,5.58,5.58,0,0,1,.7,0A4.68,4.68,0,0,1,13,2.52l.18.11.11.07.34.25.06,0,.15.13a5.77,5.77,0,0,1,1.72,4.3,7.51,7.51,0,0,1-3,5.39,4,4,0,0,1-.45.31ZM19,20.1c-.08.47-.25.72-.94.72H3.33c-.86,0-1-.23-1.13-.93a36.81,36.81,0,0,1-.4-3.68,1.46,1.46,0,0,1,1.49-1.65,28.84,28.84,0,0,1,3.36,0H8a5,5,0,0,0,2.65.81h0a3.19,3.19,0,0,0,.54,0h.11a4.85,4.85,0,0,0,.49-.11l.24-.07a2,2,0,0,0,.31-.12,5.68,5.68,0,0,0,.93-.45h1.76a22.37,22.37,0,0,1,2.6,0,2,2,0,0,1,1.41.5,1.8,1.8,0,0,1,.38,1.31A32.1,32.1,0,0,1,19,20.1Z"/></svg>