<svg id="a1f6a0c7-b0b7-4d84-90a8-63816dbbd768" data-name="Layer 1" xmlns="http://www.w3.org/2000/svg" viewBox="0 0 136.08 22.45"><title>Untitled-2</title><path d="M12.72,1.74a1.87,1.87,0,0,1,1,.3c2.3,1.47,5.67,3.57,8.58,5.23a1.85,1.85,0,0,1,.9,2.45C22.58,10.9,22,12,21.54,13c-2.62,5.28-3.82,7.69-9,7.69S6.25,18.3,3.63,13C3.11,12,2.57,10.89,2,9.72a1.84,1.84,0,0,1,.89-2.45C5.48,5.77,9.55,3.33,11.74,2a1.85,1.85,0,0,1,1-.27m0-1.74a3.63,3.63,0,0,0-1.88.52C8.5,1.93,4.57,4.28,2,5.75A3.57,3.57,0,0,0,.41,10.54c.61,1.14,1.14,2.21,1.66,3.25,2.68,5.4,4.29,8.66,10.51,8.66s7.84-3.26,10.52-8.66c.48-1,1-2.1,1.65-3.25a3.56,3.56,0,0,0-1.57-4.79C20.29,4.11,17,2,14.67.57A3.6,3.6,0,0,0,12.72,0" fill="#4e5e81"/><path d="M19.43,9.83a27.52,27.52,0,0,1-6.48-4h0l-.09-.1a.44.44,0,0,0-.26-.1.39.39,0,0,0-.25.1l-.1.1h0a27.84,27.84,0,0,1-6.49,4,.11.11,0,0,0-.05.15,8.88,8.88,0,0,0,.5.84,1,1,0,0,0,1.21.29L10.9,10a.18.18,0,0,1,.24.16l.08.85a.5.5,0,0,1-.22.44c-.84.56-3,2-3.23,2.09a.15.15,0,0,0,0,.19,2.2,2.2,0,0,0,.2.31,1.38,1.38,0,0,0,.75.66,1,1,0,0,0,.68-.09l1.9-.72a.19.19,0,0,1,.26.16l.3,3c0,.35.33.49.58.64a.39.39,0,0,0,.18.06.42.42,0,0,0,.19-.06c.25-.15.54-.29.57-.64l.3-3a.19.19,0,0,1,.26-.16l1.91.72a1,1,0,0,0,.67.09,1.36,1.36,0,0,0,.76-.66,3.3,3.3,0,0,0,.19-.31.17.17,0,0,0,0-.19c-.22-.13-2.4-1.53-3.23-2.09A.46.46,0,0,1,14,11l.07-.85a.19.19,0,0,1,.25-.16c.59.2,2.22.74,3.5,1.15A1,1,0,0,0,19,10.82a8.85,8.85,0,0,0,.51-.84.11.11,0,0,0-.06-.15" fill="#4e5e81"/><path d="M61.5,16.34c0,.92-1.72,1.78-4.57,1.78-3.47,0-4.54-1.36-4.54-3.87,0-2,.54-3.56,3.6-3.56a18.47,18.47,0,0,1,2.59.23v-.75c0-1.09-.6-1.28-2.35-1.28a26.34,26.34,0,0,0-2.66.23c-.58,0-.64-1.37-.64-1.67,0-.58.08-.69.3-.77a16.5,16.5,0,0,1,3.66-.34c3,0,4.61.72,4.61,3.74Zm-2.92-3.27a13.4,13.4,0,0,0-1.78-.17c-1.09,0-1.49.45-1.49,1.59s.38,1.42,1.64,1.42a5.76,5.76,0,0,0,1.63-.23Z" fill="#4e5e81"/><path d="M80.81,15.44c1.43,0,2.31-.15,2.31-.77,0-1.65-5.42-.73-5.42-5,0-2.91,2.4-3.29,4.46-3.29a19.88,19.88,0,0,1,3.3.15c.36.06.45.36.45.75,0,1.13-.37,1.92-.67,1.92C84.71,9.16,84.13,9,83,9c-1.5,0-2.25.17-2.25.71,0,1.37,5.42.6,5.42,4.95,0,3-2.31,3.45-4.63,3.45-1.32,0-4.11,0-4.11-.86a2,2,0,0,1,0-.32c.26-1.48.5-1.71.84-1.71h.11a14.61,14.61,0,0,0,2.42.21" fill="#4e5e81"/><path d="M35.31,15.44c1.43,0,2.31-.15,2.31-.77,0-1.65-5.42-.73-5.42-5,0-2.91,2.4-3.29,4.46-3.29a19.88,19.88,0,0,1,3.3.15c.36.06.45.36.45.75,0,1.13-.37,1.92-.67,1.92-.53,0-1.11-.15-2.27-.15-1.5,0-2.25.17-2.25.71,0,1.37,5.42.6,5.42,4.95,0,3-2.31,3.45-4.62,3.45-1.33,0-4.12,0-4.12-.86a1.32,1.32,0,0,1,.05-.32c.25-1.48.49-1.71.83-1.71h.11a14.73,14.73,0,0,0,2.42.21" fill="#4e5e81"/><path d="M101.85,10.56c0-3.35,1.35-4.22,4.8-4.22h.13c3.47,0,4.82.87,4.82,4.22V13.9c0,3.34-1.35,4.22-4.82,4.22h-.13c-3.45,0-4.8-.88-4.8-4.22Zm5,4.88c1.4,0,1.76-.38,1.76-1.52V10.56c0-1.2-.36-1.55-1.76-1.55h-.21c-1.37,0-1.74.33-1.74,1.55v3.36c0,1.2.35,1.52,1.74,1.52Z" fill="#4e5e81"/><path d="M50.16,17c0-1.09,0-1.6-.56-1.6-.25,0-.62.07-1,.07a1.07,1.07,0,0,1-1.15-1.23v-5h1.91c.38,0,.64-.28.64-1.34s-.26-1.34-.64-1.34H47.42V4.26c0-.33-.39-.54-.77-.54-.54,0-2.25.29-2.25.74V6.55H43.25c-.39,0-.64.28-.64,1.34s.25,1.34.64,1.34H44.4v5.44c0,2.74,1.35,3.45,3.15,3.45a8.56,8.56,0,0,0,2-.22c.46-.13.65-.26.62-.9" fill="#4e5e81"/><path d="M131,17c-.05-1.09,0-1.6-.55-1.6-.26,0-.62.07-1,.07a1.08,1.08,0,0,1-1.16-1.23v-5h1.91c.39,0,.64-.28.64-1.34s-.25-1.34-.64-1.34h-1.91V4.26c0-.33-.38-.54-.77-.54-.54,0-2.25.29-2.25.74V6.55h-1.15c-.39,0-.64.28-.64,1.34s.25,1.34.64,1.34h1.15v5.44c0,2.74,1.35,3.45,3.15,3.45a8.56,8.56,0,0,0,2-.22c.46-.13.65-.26.62-.9" fill="#4e5e81"/><path d="M95.12,6.33c-1,0-6,.5-6,2.19V21.21c0,.43.32.72,1.52.72s1.52-.29,1.52-.72V17.45a8.51,8.51,0,0,0,2.91.67c3.39,0,3.47-1.89,3.47-4.14V10.43c0-3.07-1-4.1-3.47-4.1m.45,7.4c0,1-.19,1.65-1.2,1.65a4.49,4.49,0,0,1-2.18-.52V9.57A4.24,4.24,0,0,1,94.37,9c.95,0,1.2.71,1.2,1.76Z" fill="#4e5e81"/><path d="M121.07,6.44a11.32,11.32,0,0,0-1.41-.1c-2.44,0-4.8.66-4.8,1.8v9.25c0,.44.32.73,1.52.73s1.52-.29,1.52-.73v-8A4.06,4.06,0,0,1,119.81,9a11.46,11.46,0,0,1,1.2.09c.32,0,.6-.51.6-2,0-.45-.13-.6-.54-.67" fill="#4e5e81"/><path d="M70.63,6.34c-2.9,0-5.79,1.09-5.79,1.94v9.11c0,.44.32.73,1.52.73s1.53-.29,1.53-.73V9.71c0-.2,1.43-.59,2.22-.59s1.1.32,1.1,1.16v7.11c0,.44.32.73,1.52.73s1.52-.29,1.52-.73v-7c0-2.57-.34-4-3.62-4" fill="#4e5e81"/><path d="M133.65,15.87a.24.24,0,0,1,.23-.24h.56c.41,0,.69.18.69.57a.52.52,0,0,1-.31.49l.21.24a.25.25,0,0,1,.06.16.23.23,0,0,1-.23.23.24.24,0,0,1-.18-.09l-.35-.44h-.21v.29a.24.24,0,1,1-.47,0Zm.76.55c.16,0,.25-.08.25-.19s-.09-.2-.25-.2h-.29v.39Z" fill="#4e5e81"/><path d="M134.36,18.2a1.73,1.73,0,1,1,1.72-1.72,1.73,1.73,0,0,1-1.72,1.72m0-3.09a1.37,1.37,0,1,0,1.36,1.37,1.37,1.37,0,0,0-1.36-1.37" fill="#4e5e81"/></svg>