<svg id="bc746bec-4e68-4bd4-8da2-1053e3928150" data-name="Layer 1" xmlns="http://www.w3.org/2000/svg" viewBox="0 0 28.46 22.5"><title>Untitled-2</title><path d="M28.12,4.67A1.6,1.6,0,0,0,26.84,4H7.76L6.91,1.16A1.63,1.63,0,0,0,5.36,0H.9a.9.9,0,0,0,0,1.8H5.23L9.86,17.49a1.63,1.63,0,0,0,1.55,1.16H24.76a.9.9,0,1,0,0-1.8H11.54l-.42-1.44H24.71a1.62,1.62,0,0,0,1.56-1.21l2.14-8.12A1.63,1.63,0,0,0,28.12,4.67Zm-3.55,8.94h-14l-.28-.94h2.87a.54.54,0,0,0,0-1.08H10L9.6,10.27h1.6a.54.54,0,0,0,0-1.08H9.28L8.89,7.87h2.87a.54.54,0,0,0,.54-.54.54.54,0,0,0-.54-.54H8.57l-.27-1H26.61Z"/><path d="M13.71,19.07a1.72,1.72,0,1,0,1.71,1.72A1.72,1.72,0,0,0,13.71,19.07Z"/><path d="M22.78,19.07a1.72,1.72,0,1,0,1.71,1.72A1.71,1.71,0,0,0,22.78,19.07Z"/></svg>