<svg id="a5be4003-a032-41a4-bb9e-8b6c1144afd7" data-name="Layer 1" xmlns="http://www.w3.org/2000/svg" viewBox="0 0 253.97 178.16"><title>Untitled-2</title><path d="M26,166.9a1.35,1.35,0,0,0-.67.18c-.83.5-2.23,1.34-3.14,1.86a1.26,1.26,0,0,0-.56,1.7c.22.4.41.78.59,1.15.95,1.92,1.52,3.08,3.73,3.08s2.78-1.16,3.73-3.08c.18-.35.37-.74.59-1.15a1.27,1.27,0,0,0-.55-1.7c-1-.59-2.22-1.33-3-1.84a1.23,1.23,0,0,0-.69-.2"/><path d="M228.12,166.9a1.35,1.35,0,0,0-.67.18c-.83.5-2.23,1.34-3.14,1.86a1.26,1.26,0,0,0-.56,1.7c.22.4.41.78.59,1.15.95,1.92,1.52,3.08,3.73,3.08s2.78-1.16,3.74-3.08c.17-.35.36-.74.58-1.15a1.27,1.27,0,0,0-.55-1.7c-1-.59-2.22-1.33-3-1.84a1.23,1.23,0,0,0-.69-.2"/><rect y="73.87" width="253.97" height="3.86"/><rect y="155.26" width="253.97" height="3.86"/><path d="M46.54,49.32C37.84,45.87,28,38.78,24.62,35.89l-.06,0-.32-.31a1.23,1.23,0,0,0-.86-.34,1.19,1.19,0,0,0-.85.34l-.32.31-.06,0C18.78,38.78,8.92,45.87.23,49.32a.35.35,0,0,0-.19.49,32.76,32.76,0,0,0,1.7,2.84c.89,1.34,2.48,1.5,4.1,1,4.33-1.38,9.84-3.22,11.84-3.89a.64.64,0,0,1,.84.55l.25,2.88A1.65,1.65,0,0,1,18,54.66c-2.83,1.87-10.19,6.6-10.91,7.06a.54.54,0,0,0-.12.64,8.59,8.59,0,0,0,.66,1,4.53,4.53,0,0,0,2.55,2.23,3.37,3.37,0,0,0,2.28-.29c2.46-.92,5.13-2,6.44-2.45a.65.65,0,0,1,.88.55l1,10c.12,1.19,1.09,1.68,1.94,2.18a1.4,1.4,0,0,0,.62.19,1.44,1.44,0,0,0,.63-.19c.85-.5,1.82-1,1.94-2.18l1-10a.66.66,0,0,1,.89-.55c1.3.5,4,1.53,6.43,2.45a3.41,3.41,0,0,0,2.29.29,4.53,4.53,0,0,0,2.55-2.23,10.07,10.07,0,0,0,.66-1,.54.54,0,0,0-.12-.64c-.72-.46-8.09-5.19-10.91-7.06A1.63,1.63,0,0,1,28,53.17l.25-2.88a.63.63,0,0,1,.83-.55c2,.67,7.52,2.51,11.85,3.89,1.62.52,3.21.36,4.1-1a32.76,32.76,0,0,0,1.7-2.84.35.35,0,0,0-.19-.49"/><path d="M253.71,56.53a69.12,69.12,0,0,1-16-9.78s0,0,0,0l-.23-.22a.9.9,0,0,0-.63-.25.88.88,0,0,0-.62.25l-.23.22-.05,0A68.79,68.79,0,0,1,220,56.53a.24.24,0,0,0-.14.35c.29.6,1,1.64,1.24,2.07a2.44,2.44,0,0,0,3,.71c3.15-1,7.17-2.34,8.62-2.83a.46.46,0,0,1,.61.4l.18,2.1a1.17,1.17,0,0,1-.54,1.08c-2.06,1.36-7.42,4.81-7.94,5.14a.4.4,0,0,0-.09.46,5.18,5.18,0,0,0,.48.77,3.33,3.33,0,0,0,1.85,1.62,2.57,2.57,0,0,0,1.67-.21c1.78-.67,3.73-1.42,4.68-1.79a.48.48,0,0,1,.65.4l.73,7.27c.09.87.8,1.23,1.42,1.59a.91.91,0,0,0,.45.14,1,1,0,0,0,.46-.14c.62-.36,1.32-.72,1.41-1.59l.74-7.27a.48.48,0,0,1,.64-.4c1,.37,2.9,1.12,4.69,1.79a2.54,2.54,0,0,0,1.66.21,3.31,3.31,0,0,0,1.86-1.62,6.19,6.19,0,0,0,.48-.77.4.4,0,0,0-.09-.46c-.53-.33-5.89-3.78-7.94-5.14a1.2,1.2,0,0,1-.55-1.08l.18-2.1a.46.46,0,0,1,.61-.4c1.46.49,5.47,1.83,8.62,2.83a2.46,2.46,0,0,0,3-.71c.28-.43.95-1.47,1.24-2.07a.25.25,0,0,0-.14-.35"/><path d="M130.49,74.61c-28.88,0-57.76,0-86.64-.06-2.09,0-5.92.72-8,.27,1.24-1.47,4.12-4.64,5.5-6Q56,54.75,70.77,40.78c1.39-1.31,3.57-3.29,4.86-3,14.24,3.7,19.53-9.29,28.6-15.1,1.6-1,2.71-3,3.73-4.69,4.81-8.09,10.85-13.42,21.27-11.6,2.23.39,5.69-1.14,7.26-2.94,5-5.67,8.31-3.82,12.38,1.06,5.79,6.94,12.27,13.28,18.2,20.11a15.57,15.57,0,0,0,12.36,5.73c2.87.08,7,2.17,8.28,4.57,7.39,14.31,18.7,24.64,31.71,33.52,1.79,1.22,4.63,4.56,6.18,6.13-2.33.49-6.14-.08-8.47-.07-28.88.1-57.76.06-86.64.06m-7.07-64.8c-1.69,0-3.12.69-3.09,4,1.93,6.87,3.17,14.19,11.6,17,7,2.3,13,6.1,16.89,12.94,1.16,2,4.16,3.51,6.61,4.22,3.93,1.15,8.11,1.44,12.18,2.1-2.48-3-4.74-6.3-7.49-9.07-9.28-9.38-18.62-18.7-28.21-27.75-1.81-1.7-3.22-3.43-8.49-3.43M94.36,55.91A14.59,14.59,0,0,0,93,54.25c-2.21-2.37-4.38-4.78-6.7-7-6-5.8-10.13-5.55-15.45.89a20,20,0,0,0-1.77,3.06,24.67,24.67,0,0,0,3.3,1c7.4,1.28,14.8,2.5,22,3.7m64.45-28.08c-1-11.06-8.94-15.3-15.57-20.52a3,3,0,0,0-4,.8c-.73,1.7.47,2.23,1.14,2.9,5.43,5.45,11,10.8,16.46,16.15a13.1,13.1,0,0,0,1.77,1.25c.18-.62.36-1.25.17-.58"/><polygon points="3.65 102.78 13.22 102.78 13.22 105.88 0.46 105.88 0.46 82.93 13.22 82.93 13.22 86.02 3.65 86.02 3.65 92.92 10.62 92.92 10.62 95.75 3.65 95.75 3.65 102.78"/><polygon points="29.73 105.88 20.49 89.41 20.49 105.88 17.3 105.88 17.3 82.93 20.26 82.93 29.5 99.46 29.5 82.93 32.73 82.93 32.73 105.88 29.73 105.88"/><path d="M52.3,97.55c0,5-2.83,8.65-7.68,8.65-4.53,0-7.65-3.29-7.65-8V90.45c0-4.69,3.12-7.94,7.65-7.94,4.75,0,7.68,3.58,7.68,8.46H49.11c-.1-2.8-1.34-5.37-4.49-5.37-2.25,0-4.46,1.43-4.46,4.75v8c0,3.15,2,4.78,4.46,4.78,3.45,0,4.49-3,4.49-5.56Z"/><path d="M55.56,98.23V90.52c0-4.69,3.13-8,7.65-8s7.68,3.29,7.68,8v7.71c0,4.68-3.19,7.94-7.68,7.94s-7.65-3.26-7.65-7.94m12.11.13v-8c0-3.16-2-4.79-4.46-4.79-2.24,0-4.46,1.43-4.46,4.75v8c0,3.15,2,4.78,4.46,4.78,2.25,0,4.46-1.43,4.46-4.75"/><path d="M78,82.93v15.4c0,3.35,2.18,4.78,4.46,4.78,2.47,0,4.49-1.63,4.49-4.78V82.93h3.19v15.3c0,4.68-3.19,7.94-7.68,7.94s-7.65-3.26-7.65-7.94V82.93Z"/><path d="M97.89,99.27v6.61H94.71V82.93h6.93c4.65,0,7.64,2.86,7.64,8v.65c0,3.81-2,6.18-5,7l4.88,7.29h-3.68l-4.23-6.61Zm0-3.06h3.39c2.73,0,4.85-1.37,4.85-4.65v-.79c0-3.58-2.08-4.75-4.85-4.75H97.89Z"/><path d="M126,105.88l-1.56-5.18h-8.53l-1.59,5.18H111l7.46-22.95H122l7.32,22.95Zm-9.28-7.95h6.93L120.2,86.45Z"/><path d="M142.93,90.29c-.07-3.09-2-4.69-4.49-4.69-2.84,0-4.43,1.72-4.43,5.83v6.93c0,3.16,2,4.75,4.43,4.75s4.49-1.63,4.49-4.75v-.85h-4.46V94.68h7.64v3.58c0,4.69-3.15,7.94-7.67,7.94s-7.62-3.25-7.62-7.94V90.48c0-4.68,3.12-8,7.62-8s7.58,3.22,7.67,7.78Z"/><rect x="150.36" y="82.93" width="3.19" height="22.95"/><polygon points="170.86 105.88 161.62 89.41 161.62 105.88 158.43 105.88 158.43 82.93 161.39 82.93 170.64 99.46 170.64 82.93 173.86 82.93 173.86 105.88 170.86 105.88"/><path d="M190.21,90.29c-.07-3.09-2-4.69-4.49-4.69-2.83,0-4.43,1.72-4.43,5.83v6.93c0,3.16,2,4.75,4.43,4.75s4.49-1.63,4.49-4.75v-.85h-4.46V94.68h7.65v3.58c0,4.69-3.16,7.94-7.68,7.94s-7.62-3.25-7.62-7.94V90.48c0-4.68,3.13-8,7.62-8s7.58,3.22,7.68,7.78Z"/><polygon points="208.87 105.88 208.87 86.02 203.34 86.02 203.34 82.93 217.62 82.93 217.62 86.02 212.06 86.02 212.06 105.88 208.87 105.88"/><polygon points="224.24 82.93 224.24 92.96 232.67 92.96 232.67 82.93 235.86 82.93 235.86 105.88 232.67 105.88 232.67 95.75 224.24 95.75 224.24 105.88 221.05 105.88 221.05 82.93 224.24 82.93"/><polygon points="243.94 102.78 253.51 102.78 253.51 105.88 240.75 105.88 240.75 82.93 253.51 82.93 253.51 86.02 243.94 86.02 243.94 92.92 250.91 92.92 250.91 95.75 243.94 95.75 243.94 102.78"/><path d="M.6,137.16V123c0-8.42,5.67-14.27,13.86-14.27S28.27,114.53,28.27,123v14.21c0,8.37-5.74,14.21-13.81,14.21S.6,145.53.6,137.16M11,122.6v14.91c0,3.51,2,3.92,3.45,3.92s3.4-.41,3.4-3.92V122.6c0-3.57-1.82-4-3.4-4S11,119,11,122.6"/><path d="M51.09,109.44H61.5v27.78c0,8.36-5.73,14.21-13.8,14.21s-13.8-5.85-13.8-14.21V109.44H44.25v28.13c0,3.51,2,3.92,3.45,3.92s3.39-.41,3.39-3.92Z"/><polygon points="90.23 119.44 83.16 119.44 83.16 150.73 72.69 150.73 72.69 119.44 65.61 119.44 65.61 109.44 90.23 109.44 90.23 119.44"/><path d="M95,150.73V109.44h13.87c8.12,0,13.8,5.5,13.8,15.5v10.52c0,9.95-5.68,15.27-13.8,15.27Zm10.42-31.35v21.53h2.16c2,0,4.79-.59,4.79-5.56V125c0-5-2.57-5.62-4.79-5.62Z"/><path d="M127.64,137.16V123c0-8.42,5.67-14.27,13.86-14.27s13.8,5.85,13.8,14.27v14.21c0,8.37-5.73,14.21-13.8,14.21s-13.86-5.84-13.86-14.21m10.41-14.56v14.91c0,3.51,2,3.92,3.45,3.92s3.39-.41,3.39-3.92V122.6c0-3.57-1.81-4-3.39-4s-3.45.41-3.45,4"/><path d="M160.29,137.16V123c0-8.42,5.67-14.27,13.86-14.27S188,114.53,188,123v14.21c0,8.37-5.73,14.21-13.8,14.21s-13.86-5.84-13.86-14.21M170.7,122.6v14.91c0,3.51,2,3.92,3.45,3.92s3.39-.41,3.39-3.92V122.6c0-3.57-1.81-4-3.39-4s-3.45.41-3.45,4"/><path d="M194.17,150.73V109.44H207.8c8.12,0,13.8,5.5,13.8,15.5v1.11c0,6-2,10.23-5.39,12.75l5,11.93H210l-3.16-9.42h-2.22v9.42Zm10.41-31.35v12.11h1.93c2,0,4.79-.59,4.79-5.55V125c0-5-2.57-5.62-4.79-5.62Z"/><path d="M252.78,122.36H242.55c0-3.15-1.75-3.91-3.27-3.91s-3.4.7-3.4,2.8c0,6.21,17.49,2.87,17.49,17.2,0,7.9-5.85,13-14.09,13s-14.16-5.73-14.16-14.15h10.35c0,3.39,2.11,4.09,3.81,4.09s3.68-.46,3.68-2.92c0-5.73-17.37-3.22-17.37-17.2,0-7.66,5.62-12.57,13.69-12.57,7.83,0,13.5,5.62,13.5,13.68"/><path d="M44.14,167.17H41.65v4.64c0,1.78.16,2.69,1.69,2.69l.83,0c0,.27,0,.55,0,.82a7.43,7.43,0,0,1-.78.05c-2.3,0-2.64-1.29-2.64-3.43v-4.74h-1v-.63c1.16,0,1.29-.36,1.29-1.88h.61v1.72h2.49Z"/><path d="M51.63,175.21v-5.44c0-1.7-.76-2.75-2.47-2.75s-2.46,1-2.46,2.75v5.44h-.88V163.43h.88v4.42a2.73,2.73,0,0,1,2.72-1.61c1.85,0,3.1,1.18,3.1,3.39v5.58Z"/><path d="M60.93,171H55.12v1a2.34,2.34,0,0,0,2.47,2.57A2.22,2.22,0,0,0,60,172.41v-.09h.9v.06a3.05,3.05,0,0,1-3.34,3c-2.12,0-3.35-1.28-3.35-3.49v-2.13c0-2.22,1.23-3.52,3.35-3.52a3.11,3.11,0,0,1,3.34,3.44Zm-5.81-.69H60v-.67c0-1.74-.91-2.61-2.44-2.61a2.33,2.33,0,0,0-2.47,2.59Z"/><path d="M158.84,164.88a.61.61,0,0,1-.61-.62.61.61,0,1,1,1.22,0,.61.61,0,0,1-.61.62m-.46,1.49h.9v8.84h-.9Z"/><path d="M167.13,175.21V169.8c0-1.71-.79-2.78-2.47-2.78s-2.45,1-2.45,2.75v5.44h-.88v-8.84h.85v1.48a2.83,2.83,0,0,1,2.72-1.61c2,0,3.13,1.31,3.13,3.46v5.51Z"/><path d="M170.67,164.88a.62.62,0,0,1-.61-.62.62.62,0,0,1,1.23,0,.62.62,0,0,1-.62.62m-.45,1.49h.89v8.84h-.89Z"/><path d="M177.23,167.17h-2.48v4.64c0,1.78.16,2.69,1.68,2.69l.83,0c0,.27,0,.55,0,.82a7.61,7.61,0,0,1-.79.05c-2.29,0-2.64-1.29-2.64-3.43v-4.74h-1v-.63c1.17,0,1.29-.36,1.29-1.88h.62v1.72h2.48Z"/><path d="M179.61,164.88a.61.61,0,0,1-.61-.62.61.61,0,1,1,1.22,0,.61.61,0,0,1-.61.62m-.46,1.49h.9v8.84h-.9Z"/><path d="M181.86,171.86v-2.15c0-2.19,1.19-3.47,3.11-3.47a2.85,2.85,0,0,1,2.73,1.59v-1.46h.85v8.84h-.85v-1.45a2.84,2.84,0,0,1-2.73,1.61c-1.95,0-3.11-1.31-3.11-3.51m5.79-.11v-2c0-1.7-.93-2.69-2.44-2.69s-2.45,1-2.45,2.78v1.95c0,1.81.86,2.85,2.45,2.85s2.44-1.06,2.44-2.85"/><path d="M194.41,167.17h-2.48v4.64c0,1.78.16,2.69,1.68,2.69l.84,0c0,.27,0,.55,0,.82a7.6,7.6,0,0,1-.78.05c-2.3,0-2.65-1.29-2.65-3.43v-4.74h-1v-.63c1.16,0,1.29-.36,1.29-1.88h.61v1.72h2.48Z"/><path d="M196.48,164.88a.62.62,0,0,1-.62-.62.62.62,0,0,1,1.23,0,.62.62,0,0,1-.61.62m-.46,1.49h.9v8.84H196Z"/><polygon points="201.89 175.21 198.57 166.37 199.56 166.37 202.33 173.94 205.08 166.37 206.06 166.37 202.77 175.21 201.89 175.21"/><path d="M213.59,171h-5.8v1a2.34,2.34,0,0,0,2.47,2.57,2.22,2.22,0,0,0,2.44-2.19v-.09h.89v.06a3,3,0,0,1-3.33,3c-2.12,0-3.35-1.28-3.35-3.49v-2.13c0-2.22,1.23-3.52,3.35-3.52a3.1,3.1,0,0,1,3.33,3.44Zm-5.8-.69h4.91v-.67c0-1.74-.91-2.61-2.44-2.61a2.33,2.33,0,0,0-2.47,2.59Z"/><path d="M91.43,173.69c0,.74-1.37,1.42-3.65,1.42-2.77,0-3.63-1.09-3.63-3.09,0-1.58.43-2.84,2.88-2.84a14.22,14.22,0,0,1,2.07.18v-.6c0-.88-.48-1-1.89-1a18.66,18.66,0,0,0-2.12.19c-.46,0-.51-1.1-.51-1.34,0-.46.07-.55.24-.62a13.21,13.21,0,0,1,2.93-.27c2.43,0,3.68.58,3.68,3Zm-2.33-2.61a9.76,9.76,0,0,0-1.42-.14c-.88,0-1.2.36-1.2,1.27s.31,1.14,1.32,1.14a4.7,4.7,0,0,0,1.3-.19Z"/><path d="M106.87,173c1.15,0,1.85-.12,1.85-.61,0-1.32-4.33-.59-4.33-4,0-2.33,1.92-2.64,3.56-2.64a15.62,15.62,0,0,1,2.64.12c.29.05.36.29.36.6,0,.91-.29,1.54-.53,1.54-.43,0-.89-.12-1.81-.12-1.2,0-1.8.14-1.8.57,0,1.09,4.33.48,4.33,4,0,2.38-1.85,2.75-3.7,2.75-1.06,0-3.29,0-3.29-.68a2.6,2.6,0,0,1,0-.26c.21-1.18.4-1.37.67-1.37h.09a11.35,11.35,0,0,0,1.93.17"/><path d="M70.49,173c1.14,0,1.85-.12,1.85-.61,0-1.32-4.34-.59-4.34-4,0-2.33,1.92-2.64,3.57-2.64a15.55,15.55,0,0,1,2.63.12c.3.05.36.29.36.6,0,.91-.29,1.54-.53,1.54-.43,0-.89-.12-1.81-.12-1.2,0-1.8.14-1.8.57,0,1.09,4.33.48,4.33,4,0,2.38-1.85,2.75-3.7,2.75-1.06,0-3.29,0-3.29-.68a1.27,1.27,0,0,1,0-.26c.2-1.18.39-1.37.66-1.37h.09a11.63,11.63,0,0,0,1.94.17"/><path d="M123.71,169.07c0-2.68,1.08-3.38,3.83-3.38h.11c2.77,0,3.85.7,3.85,3.38v2.67c0,2.67-1.08,3.37-3.85,3.37h-.11c-2.75,0-3.83-.7-3.83-3.37Zm4,3.9c1.12,0,1.41-.31,1.41-1.21v-2.69c0-1-.29-1.24-1.41-1.24h-.17c-1.1,0-1.39.26-1.39,1.24v2.69c0,1,.28,1.21,1.39,1.21Z"/><path d="M82.36,174.22c0-.87,0-1.28-.44-1.28a8,8,0,0,1-.82.06.86.86,0,0,1-.93-1v-4H81.7c.31,0,.51-.22.51-1.07s-.2-1.07-.51-1.07H80.17V164c0-.26-.31-.43-.62-.43s-1.8.23-1.8.59v1.67h-.92c-.3,0-.51.23-.51,1.07s.21,1.07.51,1.07h.92v4.36c0,2.19,1.08,2.75,2.52,2.75a7.19,7.19,0,0,0,1.6-.17c.36-.1.52-.21.49-.72"/><path d="M147,174.22c0-.87,0-1.28-.45-1.28a7.56,7.56,0,0,1-.82.06c-.48,0-.92-.23-.92-1v-4h1.52c.31,0,.51-.22.51-1.07s-.2-1.07-.51-1.07H144.8V164c0-.26-.31-.43-.62-.43s-1.8.23-1.8.59v1.67h-.92c-.31,0-.51.23-.51,1.07s.2,1.07.51,1.07h.92v4.36c0,2.19,1.08,2.75,2.52,2.75a7,7,0,0,0,1.59-.17c.37-.1.52-.21.5-.72"/><path d="M118.32,165.69c-.77,0-4.76.39-4.76,1.75v10.14c0,.35.26.58,1.22.58s1.21-.23,1.21-.58v-3a6.83,6.83,0,0,0,2.33.53c2.71,0,2.78-1.5,2.78-3.3V169c0-2.45-.79-3.27-2.78-3.27m.36,5.91c0,.79-.15,1.32-1,1.32a3.55,3.55,0,0,1-1.74-.41v-4.23a3.3,3.3,0,0,1,1.74-.45c.76,0,1,.57,1,1.41Z"/><path d="M139.08,165.78a8.46,8.46,0,0,0-1.13-.09c-2,0-3.84.53-3.84,1.44v7.4c0,.35.26.58,1.22.58s1.21-.23,1.21-.58v-6.37a3.18,3.18,0,0,1,1.53-.31,8.35,8.35,0,0,1,1,.07c.26,0,.48-.41.48-1.61,0-.36-.11-.48-.43-.53"/><path d="M98.73,165.69c-2.31,0-4.62.87-4.62,1.56v7.28c0,.35.25.58,1.21.58s1.22-.23,1.22-.58v-6.14c0-.16,1.15-.47,1.78-.47s.88.25.88.92v5.69c0,.35.25.58,1.21.58s1.22-.23,1.22-.58v-5.6c0-2.06-.28-3.24-2.9-3.24"/><path d="M153.47,172.4A2.48,2.48,0,1,1,151,170a2.42,2.42,0,0,1,2.47,2.41m-4.34,0a1.87,1.87,0,0,0,1.89,1.92,1.85,1.85,0,0,0,1.84-1.91,1.87,1.87,0,1,0-3.73,0m1.49,1.26h-.56v-2.41a5.16,5.16,0,0,1,.93-.08,1.55,1.55,0,0,1,.84.18.69.69,0,0,1,.23.53.61.61,0,0,1-.5.56v0a.71.71,0,0,1,.44.59,1.92,1.92,0,0,0,.18.6h-.61a2.51,2.51,0,0,1-.19-.59c0-.26-.19-.38-.49-.38h-.27Zm0-1.37h.27c.31,0,.56-.1.56-.35s-.16-.37-.52-.37a1.77,1.77,0,0,0-.31,0Z"/></svg>